<svg xmlns="http://www.w3.org/2000/svg" width="820" height="440" viewBox="0 0 820 440">
<rect x="0" y="0" width="820" height="440" fill="#ffffff"/>
<text x="78" y="30" font-family="Segoe UI, Microsoft YaHei, sans-serif" font-size="19" font-weight="bold" fill="#1a1a1a">RPT UDP 丢包率:tunnelCount 4 vs 8 (%)</text>
<text x="78" y="48" font-family="Segoe UI, Microsoft YaHei, sans-serif" font-size="12" fill="#888888">单流 500M / 4=2Gbps / 8=4Gbps / 12=6Gbps</text>
<line x1="78" y1="378.0" x2="794" y2="378.0" stroke="#e5e5e5" stroke-width="1"/>
<text x="70" y="382.0" font-family="Segoe UI, Microsoft YaHei, sans-serif" font-size="12" fill="#666" text-anchor="end">0</text>
<line x1="78" y1="296.5" x2="794" y2="296.5" stroke="#e5e5e5" stroke-width="1"/>
<text x="70" y="300.5" font-family="Segoe UI, Microsoft YaHei, sans-serif" font-size="12" fill="#666" text-anchor="end">15</text>
<line x1="78" y1="215.0" x2="794" y2="215.0" stroke="#e5e5e5" stroke-width="1"/>
<text x="70" y="219.0" font-family="Segoe UI, Microsoft YaHei, sans-serif" font-size="12" fill="#666" text-anchor="end">30</text>
<line x1="78" y1="133.5" x2="794" y2="133.5" stroke="#e5e5e5" stroke-width="1"/>
<text x="70" y="137.5" font-family="Segoe UI, Microsoft YaHei, sans-serif" font-size="12" fill="#666" text-anchor="end">45</text>
<line x1="78" y1="52.0" x2="794" y2="52.0" stroke="#e5e5e5" stroke-width="1"/>
<text x="70" y="56.0" font-family="Segoe UI, Microsoft YaHei, sans-serif" font-size="12" fill="#666" text-anchor="end">60</text>
<text x="28" y="215.0" font-family="Segoe UI, Microsoft YaHei, sans-serif" font-size="13" fill="#444" transform="rotate(-90 28 215.0)" text-anchor="middle">丢包率 %</text>
<line x1="78" y1="52" x2="78" y2="378" stroke="#999" stroke-width="1"/>
<text x="167.5" y="400" font-family="Segoe UI, Microsoft YaHei, sans-serif" font-size="13" fill="#333" text-anchor="middle">单流</text>
<rect x="104.3" y="377.7" width="29.6" height="0.3" fill="#3498db" rx="2"/>
<text x="119.2" y="372.7" font-family="Segoe UI, Microsoft YaHei, sans-serif" font-size="9.5" fill="#333" text-anchor="middle">0.06</text>
<rect x="136.6" y="378.0" width="29.6" height="0.0" fill="#85c1e9" rx="2"/>
<text x="151.4" y="373.0" font-family="Segoe UI, Microsoft YaHei, sans-serif" font-size="9.5" fill="#333" text-anchor="middle">0.00</text>
<rect x="168.8" y="377.8" width="29.6" height="0.2" fill="#27ae60" rx="2"/>
<text x="183.6" y="372.8" font-family="Segoe UI, Microsoft YaHei, sans-serif" font-size="9.5" fill="#333" text-anchor="middle">0.03</text>
<rect x="201.0" y="377.8" width="29.6" height="0.2" fill="#82e0aa" rx="2"/>
<text x="215.8" y="372.8" font-family="Segoe UI, Microsoft YaHei, sans-serif" font-size="9.5" fill="#333" text-anchor="middle">0.03</text>
<text x="346.5" y="400" font-family="Segoe UI, Microsoft YaHei, sans-serif" font-size="13" fill="#333" text-anchor="middle">4 并发</text>
<rect x="283.3" y="370.6" width="29.6" height="7.4" fill="#3498db" rx="2"/>
<text x="298.2" y="365.6" font-family="Segoe UI, Microsoft YaHei, sans-serif" font-size="9.5" fill="#333" text-anchor="middle">1.37</text>
<rect x="315.6" y="375.6" width="29.6" height="2.4" fill="#85c1e9" rx="2"/>
<text x="330.4" y="370.6" font-family="Segoe UI, Microsoft YaHei, sans-serif" font-size="9.5" fill="#333" text-anchor="middle">0.44</text>
<rect x="347.8" y="376.4" width="29.6" height="1.6" fill="#27ae60" rx="2"/>
<text x="362.6" y="371.4" font-family="Segoe UI, Microsoft YaHei, sans-serif" font-size="9.5" fill="#333" text-anchor="middle">0.30</text>
<rect x="380.0" y="377.3" width="29.6" height="0.7" fill="#82e0aa" rx="2"/>
<text x="394.8" y="372.3" font-family="Segoe UI, Microsoft YaHei, sans-serif" font-size="9.5" fill="#333" text-anchor="middle">0.12</text>
<text x="525.5" y="400" font-family="Segoe UI, Microsoft YaHei, sans-serif" font-size="13" fill="#333" text-anchor="middle">8 并发</text>
<rect x="462.3" y="227.4" width="29.6" height="150.6" fill="#3498db" rx="2"/>
<text x="477.2" y="222.4" font-family="Segoe UI, Microsoft YaHei, sans-serif" font-size="9.5" fill="#333" text-anchor="middle">27.72</text>
<rect x="494.6" y="170.1" width="29.6" height="207.9" fill="#85c1e9" rx="2"/>
<text x="509.4" y="165.1" font-family="Segoe UI, Microsoft YaHei, sans-serif" font-size="9.5" fill="#333" text-anchor="middle">38.26</text>
<rect x="526.8" y="337.0" width="29.6" height="41.0" fill="#27ae60" rx="2"/>
<text x="541.6" y="332.0" font-family="Segoe UI, Microsoft YaHei, sans-serif" font-size="9.5" fill="#333" text-anchor="middle">7.54</text>
<rect x="559.0" y="358.0" width="29.6" height="20.0" fill="#82e0aa" rx="2"/>
<text x="573.8" y="353.0" font-family="Segoe UI, Microsoft YaHei, sans-serif" font-size="9.5" fill="#333" text-anchor="middle">3.69</text>
<text x="704.5" y="400" font-family="Segoe UI, Microsoft YaHei, sans-serif" font-size="13" fill="#333" text-anchor="middle">12 并发</text>
<rect x="641.3" y="84.3" width="29.6" height="293.7" fill="#3498db" rx="2"/>
<text x="656.2" y="79.3" font-family="Segoe UI, Microsoft YaHei, sans-serif" font-size="9.5" fill="#333" text-anchor="middle">54.06</text>
<rect x="673.6" y="123.3" width="29.6" height="254.7" fill="#85c1e9" rx="2"/>
<text x="688.4" y="118.3" font-family="Segoe UI, Microsoft YaHei, sans-serif" font-size="9.5" fill="#333" text-anchor="middle">46.87</text>
<rect x="705.8" y="320.3" width="29.6" height="57.7" fill="#27ae60" rx="2"/>
<text x="720.6" y="315.3" font-family="Segoe UI, Microsoft YaHei, sans-serif" font-size="9.5" fill="#333" text-anchor="middle">10.62</text>
<rect x="738.0" y="342.3" width="29.6" height="35.7" fill="#82e0aa" rx="2"/>
<text x="752.8" y="337.3" font-family="Segoe UI, Microsoft YaHei, sans-serif" font-size="9.5" fill="#333" text-anchor="middle">6.57</text>
<rect x="78" y="416" width="12" height="12" fill="#3498db" rx="2"/>
<text x="95" y="426" font-family="Segoe UI, Microsoft YaHei, sans-serif" font-size="12" fill="#333">Go t4</text>
<rect x="174" y="416" width="12" height="12" fill="#85c1e9" rx="2"/>
<text x="191" y="426" font-family="Segoe UI, Microsoft YaHei, sans-serif" font-size="12" fill="#333">Go t8</text>
<rect x="270" y="416" width="12" height="12" fill="#27ae60" rx="2"/>
<text x="287" y="426" font-family="Segoe UI, Microsoft YaHei, sans-serif" font-size="12" fill="#333">Java t4</text>
<rect x="392" y="416" width="12" height="12" fill="#82e0aa" rx="2"/>
<text x="409" y="426" font-family="Segoe UI, Microsoft YaHei, sans-serif" font-size="12" fill="#333">Java t8</text>
</svg>